# xmcd CD database file
#
# Track frame offsets:
#	150
#	3732
#	8942
#	10264
#	26380
#	36638
#	44650
#	50378
#	54341
#	61098
#	66711
#	70812
#	77014
#	81376
#	84399
#	87606
#	93605
#	101145
#	105687
#	109319
#	119891
#	122609
#	125355
#	127168
#	130529
#	139811
#	151594
#	157383
#	168400
#	179051
#	200324
#	216966
#	229362
#	246225
#	261826
#	283136
#	295797
#
# Disc length: 3993 seconds
#
# Revision: 0
# Processed by: cddbd v1.5.1PL0 Copyright (c) Steve Scherf et al.
# Submitted via: CDex 1.50Beta7
#
DISCID=350f9725
DTITLE=David Barrett - Blues Harmonica Jam Tracks and Soloing Concepts #2
DYEAR=2001
DGENRE=Blues
TTITLE0=Intro Music
TTITLE1=A Word From The Author
TTITLE2=Section 1-Notation
TTITLE3=Section 2-What Is Blues?
TTITLE4=Section 3-Opening Licks Exercise 3.1-3.3
TTITLE5=Exercise 3.4
TTITLE6=Exercise 3.5
TTITLE7=Breaks Exercise 3.6
TTITLE8=Endings Exercise 3.10
TTITLE9=Section 4-Phrasing Level 1
TTITLE10=Contrast Exercise 4.1
TTITLE11=24 Measure Solo
TTITLE12=Organizing a Song
TTITLE13=Head Exercize 4.3
TTITLE14=Opening Exercise 4.4
TTITLE15=Soloing Blocks
TTITLE16=1st-3rd Hole Soloing Block Exercise 4.6
TTITLE17=Chord Tone Soloing Exercise 4.7
TTITLE18=Example Song Using 1st-3rd Hole Soloing Block
TTITLE19=Example Song Using 1st-3rd Hole Soloing Block Exercise 4.8
TTITLE20=Breakdown on all that just happened
TTITLE21=1st-4th Hole Soloing Block
TTITLE22=Exercise 4.9-4.10
TTITLE23=Overview
TTITLE24=Section 5-Intro
TTITLE25=Section 6-Big Boy's Jam
TTITLE26=Section 7
TTITLE27=12 Bar Jam #1
TTITLE28=12 Bar Jam #2
TTITLE29=12 Bar Jam #3
TTITLE30=12 Bar Jam #4
TTITLE31=12 Bar Jam #5
TTITLE32=12 Bar Jam #6
TTITLE33=12 Bar Jam #7
TTITLE34=12 Bar Jam #8
TTITLE35=12 Bar Jam #9
TTITLE36=Ending
EXTD=YEAR: 2001
EXTT0=
EXTT1=
EXTT2=
EXTT3=
EXTT4=
EXTT5=
EXTT6=
EXTT7=
EXTT8=
EXTT9=
EXTT10=
EXTT11=
EXTT12=
EXTT13=
EXTT14=
EXTT15=
EXTT16=
EXTT17=
EXTT18=
EXTT19=
EXTT20=
EXTT21=
EXTT22=
EXTT23=
EXTT24=
EXTT25=
EXTT26=
EXTT27=
EXTT28=
EXTT29=
EXTT30=
EXTT31=
EXTT32=
EXTT33=
EXTT34=
EXTT35=
EXTT36=
PLAYORDER=
